<svg xmlns="http://www.w3.org/2000/svg" data-name="Layer 1" viewBox="0 0 100 100" x="0px" y="0px"><title>Artboard 11</title><path d="M4.47,35.5a3.31,3.31,0,0,1-2.73-3.26V28.6a3.31,3.31,0,0,1,2.73-3.26l4.3-.75A22.31,22.31,0,0,1,11,19.24L8.48,15.66a3.31,3.31,0,0,1,.37-4.24l2.58-2.58a3.3,3.3,0,0,1,4.23-.37L19.24,11a22.27,22.27,0,0,1,5.35-2.22l.75-4.3A3.31,3.31,0,0,1,28.6,1.74h3.65A3.31,3.31,0,0,1,35.5,4.47l.75,4.3A22.27,22.27,0,0,1,41.61,11l3.57-2.51a3.3,3.3,0,0,1,4.23.37L52,11.43a3.31,3.31,0,0,1,.37,4.24l-2.51,3.57a22.33,22.33,0,0,1,1.79,4.08,10.08,10.08,0,0,0-2.08,4.56l-.35,2-1.07.44-1.65-1.15a10.06,10.06,0,0,0-5.81-1.83c-.33,0-.64.06-1,.09A9.81,9.81,0,1,0,27.37,39.73a10.09,10.09,0,0,0,1.78,6.78l1.16,1.65c-.15.35-.3.71-.44,1.07l-2,.35a10.08,10.08,0,0,0-4.56,2.08,22.36,22.36,0,0,1-4.08-1.79l-3.58,2.51A3.3,3.3,0,0,1,11.43,52L8.85,49.42a3.31,3.31,0,0,1-.37-4.24L11,41.61a22.26,22.26,0,0,1-2.22-5.35Zm93.79,24v4.63a4.2,4.2,0,0,1-3.47,4.13l-5.45,1A28.25,28.25,0,0,1,86.52,76l3.18,4.54A4.2,4.2,0,0,1,89.23,86L86,89.23a4.2,4.2,0,0,1-5.38.47L76,86.52a28.31,28.31,0,0,1-6.8,2.82l-1,5.45a4.2,4.2,0,0,1-4.13,3.47H59.53a4.2,4.2,0,0,1-4.13-3.47l-1-5.45a28.26,28.26,0,0,1-6.79-2.82L43.11,89.7a4.2,4.2,0,0,1-5.38-.47L34.46,86A4.2,4.2,0,0,1,34,80.58L37.18,76a28.28,28.28,0,0,1-2.82-6.79l-5.45-1a4.2,4.2,0,0,1-3.47-4.13V59.53A4.2,4.2,0,0,1,28.9,55.4l5.45-1a28.29,28.29,0,0,1,2.82-6.8L34,43.11a4.2,4.2,0,0,1,.47-5.38l3.27-3.27A4.2,4.2,0,0,1,43.11,34l4.54,3.18a28.25,28.25,0,0,1,6.79-2.82l1-5.45a4.2,4.2,0,0,1,4.13-3.47h4.63A4.2,4.2,0,0,1,68.3,28.9l1,5.45A28.27,28.27,0,0,1,76,37.18L80.58,34a4.2,4.2,0,0,1,5.38.47l3.27,3.27a4.2,4.2,0,0,1,.47,5.38l-3.18,4.54a28.26,28.26,0,0,1,2.82,6.8l5.45,1A4.2,4.2,0,0,1,98.26,59.53ZM74.34,61.85A12.49,12.49,0,1,0,61.85,74.34,12.49,12.49,0,0,0,74.34,61.85Z"></path></svg>